{
  "source": "C:\\Users\\Peter\\Desktop\\stuff\\MIUN\\quantitative_research\\video_compression\\videos\\BVI-HD\\BVI-HD_CDVL_videos\\ORIG\\TreeGrassFamily_1920x1080_30fps.mp4",
  "output": "C:\\Users\\Peter\\Desktop\\stuff\\MIUN\\quantitative_research\\video_compression\\compressed_videos\\BVI-HD\\vp9\\1\\TreeGrassFamily_1920x1080_30fps_vp9.webm",
  "codec": "vp9",
  "ok": "Input #0, mov,mp4,m4a,3gp,3g2,mj2, from 'C:\\Users\\Peter\\Desktop\\stuff\\MIUN\\quantitative_research\\video_compression\\videos\\BVI-HD\\BVI-HD_CDVL_videos\\ORIG\\TreeGrassFamily_1920x1080_30fps.mp4':\n  Metadata:\n    major_brand     : isom\n    minor_version   : 512\n    compatible_brands: isomiso2avc1mp41\n    encoder         : Lavf54.28.101\n  Duration: 00:00:05.00, start: 0.000000, bitrate: 331787 kb/s\n  Stream #0:0[0x1](und): Video: h264 (High 4:4:4 Predictive) (avc1 / 0x31637661), yuv420p(progressive), 1920x1080, 331784 kb/s, 30 fps, 30 tbr, 30 tbn (default)\n    Metadata:\n      handler_name    : VideoHandler\n      vendor_id       : [0][0][0][0]\n[out#0/webm @ 000001e0ced70b80] Codec AVOption b:a (set bitrate (in bits/s)) has not been used for any stream. The most likely reason is either wrong type (e.g. a video option with no video streams) or that it is a private option of some decoder which was not actually used for any stream.\nStream mapping:\n  Stream #0:0 -> #0:0 (h264 (native) -> vp9 (libvpx-vp9))\nPress [q] to stop, [?] for help\n[libvpx-vp9 @ 000001e0d0ee07c0] v1.15.2-100-g40561f514\nOutput #0, webm, to 'C:\\Users\\Peter\\Desktop\\stuff\\MIUN\\quantitative_research\\video_compression\\compressed_videos\\BVI-HD\\vp9\\1\\TreeGrassFamily_1920x1080_30fps_vp9.webm':\n  Metadata:\n    major_brand     : isom\n    minor_version   : 512\n    compatible_brands: isomiso2avc1mp41\n    encoder         : Lavf62.3.100\n  Stream #0:0(und): Video: vp9, yuv420p(tv, progressive), 1920x1080, q=2-31, 1000 kb/s, 30 fps, 1k tbn (default)\n    Metadata:\n      encoder         : Lavc62.11.100 libvpx-vp9\n      handler_name    : VideoHandler\n      vendor_id       : [0][0][0][0]\n    Side data:\n      cpb: bitrate max/min/avg: 0/0/0 buffer size: 1000000 vbv_delay: N/A\nframe=    0 fps=0.0 q=0.0 size=       0KiB time=N/A bitrate=N/A speed=N/A elapsed=0:00:00.51    \nframe=    0 fps=0.0 q=0.0 size=       0KiB time=N/A bitrate=N/A speed=N/A elapsed=0:00:01.05    \nframe=    5 fps=3.1 q=63.0 size=       1KiB time=00:00:00.16 bitrate=  30.4kbits/s speed=0.103x elapsed=0:00:01.61    \nframe=   10 fps=4.7 q=63.0 size=       1KiB time=00:00:00.33 bitrate=  15.2kbits/s speed=0.156x elapsed=0:00:02.13    \nframe=   14 fps=5.2 q=63.0 size=       1KiB time=00:00:00.46 bitrate=  10.9kbits/s speed=0.174x elapsed=0:00:02.67    \nframe=   19 fps=5.9 q=62.0 size=       1KiB time=00:00:00.60 bitrate=   8.5kbits/s speed=0.187x elapsed=0:00:03.20    \nframe=   22 fps=5.8 q=62.0 size=       1KiB time=00:00:00.73 bitrate=   6.9kbits/s speed=0.195x elapsed=0:00:03.76    \nframe=   27 fps=6.3 q=63.0 size=       1KiB time=00:00:00.90 bitrate=   5.6kbits/s speed=0.21x elapsed=0:00:04.28    \nframe=   31 fps=6.5 q=52.0 size=       1KiB time=00:00:01.03 bitrate=   4.9kbits/s speed=0.215x elapsed=0:00:04.80    \nframe=   36 fps=6.7 q=63.0 size=       1KiB time=00:00:01.20 bitrate=   4.2kbits/s speed=0.225x elapsed=0:00:05.33    \nframe=   40 fps=6.8 q=63.0 size=       1KiB time=00:00:01.33 bitrate=   3.8kbits/s speed=0.226x elapsed=0:00:05.89    \nframe=   45 fps=7.0 q=63.0 size=       1KiB time=00:00:01.50 bitrate=   3.4kbits/s speed=0.233x elapsed=0:00:06.42    \nframe=   50 fps=7.2 q=63.0 size=       1KiB time=00:00:01.66 bitrate=   3.0kbits/s speed=0.239x elapsed=0:00:06.97    \nframe=   54 fps=7.2 q=63.0 size=       1KiB time=00:00:01.80 bitrate=   2.8kbits/s speed=0.24x elapsed=0:00:07.50    \nframe=   58 fps=7.2 q=63.0 size=       1KiB time=00:00:01.93 bitrate=   2.6kbits/s speed=0.241x elapsed=0:00:08.03    \nframe=   62 fps=7.2 q=63.0 size=       1KiB time=00:00:02.06 bitrate=   2.5kbits/s speed=0.241x elapsed=0:00:08.56    \nframe=   67 fps=7.4 q=63.0 size=       1KiB time=00:00:02.23 bitrate=   2.3kbits/s speed=0.246x elapsed=0:00:09.09    \nframe=   70 fps=7.3 q=63.0 size=       1KiB time=00:00:02.33 bitrate=   2.2kbits/s speed=0.243x elapsed=0:00:09.60    \nframe=   75 fps=7.4 q=63.0 size=       1KiB time=00:00:02.50 bitrate=   2.0kbits/s speed=0.247x elapsed=0:00:10.12    \nframe=   80 fps=7.5 q=63.0 size=       1KiB time=00:00:02.66 bitrate=   1.9kbits/s speed=0.25x elapsed=0:00:10.64    \nframe=   84 fps=7.5 q=63.0 size=       1KiB time=00:00:02.80 bitrate=   1.8kbits/s speed=0.25x elapsed=0:00:11.18    \nframe=   89 fps=7.6 q=63.0 size=       1KiB time=00:00:02.96 bitrate=   1.7kbits/s speed=0.253x elapsed=0:00:11.72    \nframe=   93 fps=7.6 q=62.0 size=       1KiB time=00:00:03.10 bitrate=   1.6kbits/s speed=0.252x elapsed=0:00:12.28    \nframe=   98 fps=7.6 q=63.0 size=       1KiB time=00:00:03.26 bitrate=   1.6kbits/s speed=0.255x elapsed=0:00:12.82    \nframe=  102 fps=7.6 q=63.0 size=       1KiB time=00:00:03.40 bitrate=   1.5kbits/s speed=0.255x elapsed=0:00:13.34    \nframe=  107 fps=7.7 q=63.0 size=       1KiB time=00:00:03.56 bitrate=   1.4kbits/s speed=0.257x elapsed=0:00:13.85    \nframe=  111 fps=7.7 q=51.0 size=       1KiB time=00:00:03.70 bitrate=   1.4kbits/s speed=0.257x elapsed=0:00:14.38    \nframe=  115 fps=7.7 q=63.0 size=       1KiB time=00:00:03.83 bitrate=   1.3kbits/s speed=0.257x elapsed=0:00:14.90    \nframe=  120 fps=7.8 q=63.0 size=       1KiB time=00:00:04.00 bitrate=   1.3kbits/s speed=0.259x elapsed=0:00:15.42    \nframe=  124 fps=7.8 q=63.0 size=       1KiB time=00:00:04.13 bitrate=   1.2kbits/s speed=0.259x elapsed=0:00:15.96    \nframe=  126 fps=7.6 q=63.0 size=       1KiB time=00:00:04.20 bitrate=   1.2kbits/s speed=0.255x elapsed=0:00:16.48    \nframe=  126 fps=7.4 q=63.0 size=       1KiB time=00:00:04.20 bitrate=   1.2kbits/s speed=0.247x elapsed=0:00:17.00    \nframe=  126 fps=7.2 q=63.0 size=       1KiB time=00:00:04.20 bitrate=   1.2kbits/s speed=0.24x elapsed=0:00:17.52    \nframe=  126 fps=7.0 q=63.0 size=       1KiB time=00:00:04.20 bitrate=   1.2kbits/s speed=0.232x elapsed=0:00:18.06    \nframe=  126 fps=6.8 q=63.0 size=       1KiB time=00:00:04.20 bitrate=   1.2kbits/s speed=0.226x elapsed=0:00:18.60    \n[out#0/webm @ 000001e0ced70b80] video:788KiB audio:0KiB subtitle:0KiB other streams:0KiB global headers:0KiB muxing overhead: 0.218238%\nframe=  150 fps=7.9 q=63.0 Lsize=     790KiB time=00:00:05.00 bitrate=1294.6kbits/s speed=0.263x elapsed=0:00:18.98    \n",
  "seconds": 19.308613300323486,
  "probe_out": {}
}